<svg width="56" height="35" viewBox="0 0 56 35" fill="none" xmlns="http://www.w3.org/2000/svg">
<path id="Vector" d="M2.88943 34.5C3.26877 34.5009 3.64451 34.4258 3.99487 34.279C4.34522 34.1321 4.6632 33.9165 4.93037 33.6446L19.629 18.8044L28.7477 28.011C29.0159 28.282 29.3344 28.497 29.6849 28.6436C30.0354 28.7903 30.4112 28.8658 30.7906 28.8658C31.17 28.8658 31.5457 28.7903 31.8962 28.6436C32.2468 28.497 32.5652 28.282 32.8334 28.011L50.2238 10.4531V23.1317C50.2238 23.905 50.5281 24.6467 51.0697 25.1936C51.6113 25.7404 52.3459 26.0476 53.1119 26.0476C53.8779 26.0476 54.6125 25.7404 55.1541 25.1936C55.6957 24.6467 56 23.905 56 23.1317V3.41595C56 2.64259 55.6957 1.90091 55.1541 1.35406C54.6125 0.807215 53.8779 0.5 53.1119 0.5H33.5844C32.8184 0.5 32.0838 0.807215 31.5421 1.35406C31.0005 1.90091 30.6962 2.64259 30.6962 3.41595C30.6962 4.18931 31.0005 4.93099 31.5421 5.47784C32.0838 6.02469 32.8184 6.3319 33.5844 6.3319H46.1419L30.7964 21.8253L21.6776 12.6187C21.4094 12.3477 21.0909 12.1328 20.7404 11.9861C20.3899 11.8395 20.0142 11.764 19.6347 11.764C19.2553 11.764 18.8796 11.8395 18.5291 11.9861C18.1786 12.1328 17.8601 12.3477 17.5919 12.6187L0.848496 29.5195C0.443776 29.9271 0.167956 30.4468 0.0559668 31.0128C-0.0560222 31.5787 0.000856437 32.1655 0.219399 32.6988C0.437942 33.2321 0.808318 33.688 1.28363 34.0086C1.75893 34.3292 2.31779 34.5003 2.88943 34.5Z" transform="matrix(1 0 0 -1 0 35)" fill="rgba(196,141,138,1)"/>
</svg>
